<svg width="135" height="46" viewBox="0 0 135 46" fill="none" xmlns="http://www.w3.org/2000/svg">
<path d="M34 16H10C8.34315 16 7 17.3431 7 19V33C7 34.6569 8.34315 36 10 36H34C35.6569 36 37 34.6569 37 33V19C37 17.3431 35.6569 16 34 16Z" fill="url(#paint0_linear_3995_63)"/>
<path d="M12 46C14.7614 46 17 43.7614 17 41C17 38.2386 14.7614 36 12 36C9.23858 36 7 38.2386 7 41C7 43.7614 9.23858 46 12 46Z" fill="#4CAF50"/>
<path d="M32 46C34.7614 46 37 43.7614 37 41C37 38.2386 34.7614 36 32 36C29.2386 36 27 38.2386 27 41C27 43.7614 29.2386 46 32 46Z" fill="#4CAF50"/>
<path d="M7 16L2 1H37" stroke="#4CAF50" stroke-width="2"/>
<path d="M69.2998 31H54.9297V9.18848H69.2998V11.7666H57.8301V17.7432H69.2998V20.3213H57.8301V28.4219H69.2998V31ZM85.7939 29.9746C84.876 30.4141 84.002 30.7559 83.1719 31C82.3516 31.2441 81.4775 31.3662 80.5498 31.3662C79.3682 31.3662 78.2842 31.1953 77.2979 30.8535C76.3115 30.502 75.4668 29.9746 74.7637 29.2715C74.0508 28.5684 73.499 27.6797 73.1084 26.6055C72.7178 25.5312 72.5225 24.2764 72.5225 22.8408C72.5225 20.165 73.2549 18.0654 74.7197 16.542C76.1943 15.0186 78.1377 14.2568 80.5498 14.2568C81.4873 14.2568 82.4053 14.3887 83.3037 14.6523C84.2119 14.916 85.042 15.2383 85.7939 15.6191V18.6807H85.6475C84.8076 18.0264 83.9385 17.5234 83.04 17.1719C82.1514 16.8203 81.2822 16.6445 80.4326 16.6445C78.8701 16.6445 77.6348 17.1719 76.7266 18.2266C75.8281 19.2715 75.3789 20.8096 75.3789 22.8408C75.3789 24.8135 75.8184 26.332 76.6973 27.3965C77.5859 28.4512 78.8311 28.9785 80.4326 28.9785C80.9893 28.9785 81.5557 28.9053 82.1318 28.7588C82.708 28.6123 83.2256 28.4219 83.6846 28.1875C84.085 27.9824 84.4609 27.7676 84.8125 27.543C85.1641 27.3086 85.4424 27.1084 85.6475 26.9424H85.7939V29.9746ZM103.284 22.8262C103.284 25.4922 102.601 27.5967 101.233 29.1396C99.8662 30.6826 98.0352 31.4541 95.7402 31.4541C93.4258 31.4541 91.585 30.6826 90.2178 29.1396C88.8604 27.5967 88.1816 25.4922 88.1816 22.8262C88.1816 20.1602 88.8604 18.0557 90.2178 16.5127C91.585 14.96 93.4258 14.1836 95.7402 14.1836C98.0352 14.1836 99.8662 14.96 101.233 16.5127C102.601 18.0557 103.284 20.1602 103.284 22.8262ZM100.442 22.8262C100.442 20.707 100.027 19.1348 99.1973 18.1094C98.3672 17.0742 97.2148 16.5566 95.7402 16.5566C94.2461 16.5566 93.084 17.0742 92.2539 18.1094C91.4336 19.1348 91.0234 20.707 91.0234 22.8262C91.0234 24.877 91.4385 26.4346 92.2686 27.499C93.0986 28.5537 94.2559 29.0811 95.7402 29.0811C97.2051 29.0811 98.3525 28.5586 99.1826 27.5137C100.022 26.459 100.442 24.8965 100.442 22.8262ZM131.438 31H128.685V21.6836C128.685 20.9805 128.65 20.3018 128.582 19.6475C128.523 18.9932 128.392 18.4707 128.187 18.0801C127.962 17.6602 127.64 17.3428 127.22 17.1279C126.8 16.9131 126.194 16.8057 125.403 16.8057C124.632 16.8057 123.86 17.001 123.089 17.3916C122.317 17.7725 121.546 18.2607 120.774 18.8564C120.804 19.0811 120.828 19.3447 120.848 19.6475C120.867 19.9404 120.877 20.2334 120.877 20.5264V31H118.123V21.6836C118.123 20.9609 118.089 20.2773 118.021 19.6328C117.962 18.9785 117.83 18.4561 117.625 18.0654C117.4 17.6455 117.078 17.333 116.658 17.1279C116.238 16.9131 115.633 16.8057 114.842 16.8057C114.09 16.8057 113.333 16.9912 112.571 17.3623C111.819 17.7334 111.067 18.207 110.315 18.7832V31H107.562V14.6377H110.315V16.4541C111.175 15.7412 112.029 15.1846 112.879 14.7842C113.738 14.3838 114.651 14.1836 115.618 14.1836C116.731 14.1836 117.674 14.418 118.445 14.8867C119.227 15.3555 119.808 16.0049 120.188 16.835C121.302 15.8975 122.317 15.2236 123.235 14.8135C124.153 14.3936 125.135 14.1836 126.18 14.1836C127.977 14.1836 129.3 14.7305 130.149 15.8242C131.009 16.9082 131.438 18.4268 131.438 20.3799V31Z" fill="#4CAF50"/>
<defs>
<linearGradient id="paint0_linear_3995_63" x1="7" y1="16" x2="3007" y2="16" gradientUnits="userSpaceOnUse">
<stop stop-color="#4CAF50"/>
<stop offset="1" stop-color="#81C784"/>
</linearGradient>
</defs>
</svg>
